<?xml version="1.0" encoding="UTF-8"?>
<!DOCTYPE svg PUBLIC "-//W3C//DTD SVG 1.1//EN" "http://www.w3.org/Graphics/SVG/1.1/DTD/svg11.dtd">
<!-- Creator: CorelDRAW X8 -->
<svg xmlns="http://www.w3.org/2000/svg" xml:space="preserve" width="150px" height="150px" version="1.1" style="shape-rendering:geometricPrecision; text-rendering:geometricPrecision; image-rendering:optimizeQuality; fill-rule:evenodd; clip-rule:evenodd"
viewBox="0 0 150 150"
 xmlns:xlink="http://www.w3.org/1999/xlink">
 <defs>
  <style type="text/css">
   <![CDATA[
    .fil0 {fill:#010101}
   ]]>
  </style>
 </defs>
 <g id="Capa_x0020_1">
  <metadata id="CorelCorpID_0Corel-Layer"/>
  <path class="fil0" d="M64 20c30,-7 63,16 67,45 2,18 -2,33 -11,44 -4,5 -8,10 -14,14 -28,17 -62,8 -78,-16 -18,-27 -9,-64 16,-79 9,-5 10,-6 20,-8zm83 65c2,-15 -1,-33 -9,-45 -1,-3 -5,-8 -7,-11 -8,-10 -10,-10 -20,-17 -7,-5 -18,-7 -26,-9 -22,-3 -40,4 -56,16 -12,9 -25,30 -26,46 -1,11 -1,25 3,33 4,9 6,16 13,24 11,13 29,23 46,25 24,3 41,-4 56,-16 3,-2 6,-6 9,-8 9,-11 15,-24 17,-38z"/>
 </g>
</svg>
