<?xml version="1.0" encoding="UTF-8"?>
<!DOCTYPE svg PUBLIC "-//W3C//DTD SVG 1.1//EN" "http://www.w3.org/Graphics/SVG/1.1/DTD/svg11.dtd">
<!-- Creator: CorelDRAW X8 -->
<svg xmlns="http://www.w3.org/2000/svg" xml:space="preserve" width="150px" height="150px" version="1.1" style="shape-rendering:geometricPrecision; text-rendering:geometricPrecision; image-rendering:optimizeQuality; fill-rule:evenodd; clip-rule:evenodd"
viewBox="0 0 150 150"
 xmlns:xlink="http://www.w3.org/1999/xlink">
 <defs>
  <style type="text/css">
   <![CDATA[
    .fil0 {fill:#020202}
   ]]>
  </style>
 </defs>
 <g id="Capa_x0020_1">
  <metadata id="CorelCorpID_0Corel-Layer"/>
  <path class="fil0" d="M129 129c-10,1 -106,1 -107,0 -2,-2 -1,-98 -1,-108 5,-1 46,0 54,0l51 0c3,0 3,1 3,4l0 104zm-126 11c1,4 5,7 10,7l126 0c5,-1 8,-4 8,-10l0 -54c0,-14 1,-62 0,-72 0,-6 -4,-8 -11,-8 -17,0 -120,-1 -125,0 -11,2 -8,19 -8,29 0,11 -1,105 0,108z"/>
 </g>
</svg>
