<?xml version="1.0" encoding="UTF-8"?>
<!DOCTYPE svg PUBLIC "-//W3C//DTD SVG 1.1//EN" "http://www.w3.org/Graphics/SVG/1.1/DTD/svg11.dtd">
<!-- Creator: CorelDRAW X8 -->
<svg xmlns="http://www.w3.org/2000/svg" xml:space="preserve" width="150px" height="150px" version="1.1" style="shape-rendering:geometricPrecision; text-rendering:geometricPrecision; image-rendering:optimizeQuality; fill-rule:evenodd; clip-rule:evenodd"
viewBox="0 0 150 150"
 xmlns:xlink="http://www.w3.org/1999/xlink">
 <defs>
  <style type="text/css">
   <![CDATA[
    .fil0 {fill:#010101}
   ]]>
  </style>
 </defs>
 <g id="Capa_x0020_1">
  <metadata id="CorelCorpID_0Corel-Layer"/>
  <path class="fil0" d="M75 35c2,2 17,28 19,33l25 44c2,3 6,8 6,11l-100 0c0,-3 4,-8 6,-11l34 -60c1,-2 2,-4 3,-6 2,-3 5,-9 7,-11zm-72 98c1,5 5,7 11,7l119 0c6,0 11,0 14,-4 3,-6 -5,-17 -9,-24l-10 -17c-1,-2 -1,-3 -2,-5l-26 -44c-1,-3 -4,-8 -6,-10l-9 -17c-1,-2 -2,-4 -3,-5 -3,-4 -9,-5 -12,-2l-51 87c-2,5 -3,7 -6,11 -4,7 -12,18 -10,23z"/>
 </g>
</svg>
